<?xml version="1.0" encoding="UTF-8"?>
<!DOCTYPE svg PUBLIC "-//W3C//DTD SVG 1.1//EN" "http://www.w3.org/Graphics/SVG/1.1/DTD/svg11.dtd">
<svg xmlns="http://www.w3.org/2000/svg" version="1.1" width="414px" height="414px" style="shape-rendering:geometricPrecision; text-rendering:geometricPrecision; image-rendering:optimizeQuality; fill-rule:evenodd; clip-rule:evenodd" xmlns:xlink="http://www.w3.org/1999/xlink">
<g><path style="opacity:1" fill="#fefefe" d="M -0.5,-0.5 C 137.5,-0.5 275.5,-0.5 413.5,-0.5C 413.5,137.5 413.5,275.5 413.5,413.5C 275.5,413.5 137.5,413.5 -0.5,413.5C -0.5,275.5 -0.5,137.5 -0.5,-0.5 Z"/></g>
<g><path style="opacity:1" fill="#fea910" d="M 226.5,138.5 C 216.013,139.494 205.346,139.828 194.5,139.5C 196.17,138.129 196.836,136.629 196.5,135C 195.874,134.25 195.374,133.416 195,132.5C 194.768,133.737 194.268,134.737 193.5,135.5C 193.644,130.359 196.311,128.025 201.5,128.5C 203.167,128.667 204.833,128.833 206.5,129C 213.072,132.453 219.738,135.62 226.5,138.5 Z"/></g>
<g><path style="opacity:1" fill="#feb70c" d="M 194.5,139.5 C 182.322,139.828 170.322,139.495 158.5,138.5C 158.953,137.542 159.619,136.708 160.5,136C 171.495,135.5 182.495,135.333 193.5,135.5C 194.268,134.737 194.768,133.737 195,132.5C 195.374,133.416 195.874,134.25 196.5,135C 196.836,136.629 196.17,138.129 194.5,139.5 Z"/></g>
<g><path style="opacity:1" fill="#fed381" d="M 158.5,138.5 C 170.322,139.495 182.322,139.828 194.5,139.5C 205.346,139.828 216.013,139.494 226.5,138.5C 227.289,138.783 227.956,139.283 228.5,140C 204.826,140.833 181.16,140.666 157.5,139.5C 157.624,138.893 157.957,138.56 158.5,138.5 Z"/></g>
<g><path style="opacity:1" fill="#fef2cd" d="M 193.5,144.5 C 193.737,145.791 193.404,146.791 192.5,147.5C 173.167,147.5 153.833,147.5 134.5,147.5C 154.226,147.142 173.893,146.142 193.5,144.5 Z"/></g>
<g><path style="opacity:1" fill="#fea614" d="M 193.5,144.5 C 209.009,144.17 224.342,144.504 239.5,145.5C 232.825,145.334 226.158,145.5 219.5,146C 220.833,146.333 222.167,146.667 223.5,147C 222.542,148.147 222.875,149.147 224.5,150C 223.075,151.714 223.408,153.047 225.5,154C 225.5,155.333 225.5,156.667 225.5,158C 221.975,158.179 218.641,158.679 215.5,159.5C 208.167,159.5 200.833,159.5 193.5,159.5C 193.5,158.5 193.5,157.5 193.5,156.5C 200.841,156.666 208.174,156.5 215.5,156C 216.305,154.887 216.972,153.721 217.5,152.5C 204.01,151.504 190.344,151.171 176.5,151.5C 179.305,150.681 182.305,150.181 185.5,150C 183.5,149.667 181.5,149.333 179.5,149C 184.019,148.825 188.353,148.325 192.5,147.5C 193.404,146.791 193.737,145.791 193.5,144.5 Z"/></g>
<g><path style="opacity:1" fill="#fe9508" d="M 239.5,145.5 C 241.75,146.13 243.75,147.13 245.5,148.5C 243.589,148.574 242.422,149.574 242,151.5C 241.827,171.74 241.327,191.906 240.5,212C 241.328,212.915 242.328,213.581 243.5,214C 241.942,214.21 240.609,214.71 239.5,215.5C 232.167,215.5 224.833,215.5 217.5,215.5C 220.12,215.009 222.454,213.842 224.5,212C 222.009,211.374 222.009,210.541 224.5,209.5C 223.865,205.633 223.199,201.8 222.5,198C 223.53,191.186 223.53,184.186 222.5,177C 223.167,175.667 224.167,174.667 225.5,174C 224.5,173.667 223.5,173.333 222.5,173C 223.252,172.329 223.586,171.496 223.5,170.5C 223.756,167.402 224.422,164.402 225.5,161.5C 226.043,161.44 226.376,161.107 226.5,160.5C 222.893,159.511 219.226,159.177 215.5,159.5C 218.641,158.679 221.975,158.179 225.5,158C 225.5,156.667 225.5,155.333 225.5,154C 223.408,153.047 223.075,151.714 224.5,150C 222.875,149.147 222.542,148.147 223.5,147C 222.167,146.667 220.833,146.333 219.5,146C 226.158,145.5 232.825,145.334 239.5,145.5 Z"/></g>
<g><path style="opacity:1" fill="#fec614" d="M 134.5,147.5 C 153.833,147.5 173.167,147.5 192.5,147.5C 188.353,148.325 184.019,148.825 179.5,149C 181.5,149.333 183.5,149.667 185.5,150C 182.305,150.181 179.305,150.681 176.5,151.5C 161.657,151.829 146.99,151.496 132.5,150.5C 133.167,149.5 133.833,148.5 134.5,147.5 Z"/></g>
<g><path style="opacity:1" fill="#fe8d07" d="M 245.5,148.5 C 248.485,149.326 251.151,150.659 253.5,152.5C 252.761,152.369 252.094,152.536 251.5,153C 252.833,153.667 254.167,154.333 255.5,155C 252.833,155.667 252.833,156.333 255.5,157C 253.837,174.506 252.837,192.173 252.5,210C 253.094,210.464 253.761,210.631 254.5,210.5C 251.48,212.677 248.147,214.343 244.5,215.5C 242.833,215.5 241.167,215.5 239.5,215.5C 240.609,214.71 241.942,214.21 243.5,214C 242.328,213.581 241.328,212.915 240.5,212C 241.327,191.906 241.827,171.74 242,151.5C 242.422,149.574 243.589,148.574 245.5,148.5 Z"/></g>
<g><path style="opacity:1" fill="#fedd8b" d="M 132.5,150.5 C 146.99,151.496 161.657,151.829 176.5,151.5C 190.344,151.171 204.01,151.504 217.5,152.5C 188.826,152.833 160.159,152.5 131.5,151.5C 131.624,150.893 131.957,150.56 132.5,150.5 Z"/></g>
<g><path style="opacity:1" fill="#fe8706" d="M 253.5,152.5 C 257.151,153.659 260.485,155.326 263.5,157.5C 262.869,164.383 262.535,171.717 262.5,179.5C 262.667,186.167 262.833,192.833 263,199.5C 265.149,201.724 264.649,203.224 261.5,204C 264.167,204.667 264.167,205.333 261.5,206C 261.728,206.399 262.062,206.565 262.5,206.5C 260.151,208.341 257.485,209.674 254.5,210.5C 253.761,210.631 253.094,210.464 252.5,210C 252.837,192.173 253.837,174.506 255.5,157C 252.833,156.333 252.833,155.667 255.5,155C 254.167,154.333 252.833,153.667 251.5,153C 252.094,152.536 252.761,152.369 253.5,152.5 Z"/></g>
<g><path style="opacity:1" fill="#fe7f06" d="M 263.5,157.5 C 270.957,160.085 277.957,163.418 284.5,167.5C 282.621,167.393 282.288,167.893 283.5,169C 282.636,170.137 281.636,171.47 280.5,173C 281.647,180.754 281.814,188.587 281,196.5C 280.25,197.126 279.416,197.626 278.5,198C 278.728,198.399 279.062,198.565 279.5,198.5C 274.223,201.972 268.556,204.638 262.5,206.5C 262.062,206.565 261.728,206.399 261.5,206C 264.167,205.333 264.167,204.667 261.5,204C 264.649,203.224 265.149,201.724 263,199.5C 262.833,192.833 262.667,186.167 262.5,179.5C 262.535,171.717 262.869,164.383 263.5,157.5 Z"/></g>
<g><path style="opacity:1" fill="#fee8b5" d="M 193.5,156.5 C 193.5,157.5 193.5,158.5 193.5,159.5C 193.5,159.833 193.5,160.167 193.5,160.5C 193.167,160.5 192.833,160.5 192.5,160.5C 186.167,160.5 179.833,160.5 173.5,160.5C 179.645,159.51 185.978,159.177 192.5,159.5C 192.263,158.209 192.596,157.209 193.5,156.5 Z"/></g>
<g><path style="opacity:1" fill="#febf53" d="M 193.5,160.5 C 193.5,160.167 193.5,159.833 193.5,159.5C 200.833,159.5 208.167,159.5 215.5,159.5C 219.226,159.177 222.893,159.511 226.5,160.5C 226.376,161.107 226.043,161.44 225.5,161.5C 215.013,160.506 204.346,160.172 193.5,160.5 Z"/></g>
<g><path style="opacity:1" fill="#fefdfa" d="M 193.5,160.5 C 204.346,160.172 215.013,160.506 225.5,161.5C 224.422,164.402 223.756,167.402 223.5,170.5C 213.582,171.474 203.582,171.807 193.5,171.5C 193.5,167.833 193.5,164.167 193.5,160.5 Z"/></g>
<g><path style="opacity:1" fill="#feb912" d="M 173.5,160.5 C 179.833,160.5 186.167,160.5 192.5,160.5C 192.5,164.167 192.5,167.833 192.5,171.5C 189.833,171.5 187.167,171.5 184.5,171.5C 184.007,173.806 183.674,176.139 183.5,178.5C 186.5,178.5 189.5,178.5 192.5,178.5C 192.5,181.833 192.5,185.167 192.5,188.5C 187.968,188.182 183.634,188.515 179.5,189.5C 179.039,191.55 178.372,193.55 177.5,195.5C 182.456,196.494 187.456,196.827 192.5,196.5C 192.5,200.167 192.5,203.833 192.5,207.5C 181.833,207.5 171.167,207.5 160.5,207.5C 161.833,201.833 163.167,196.167 164.5,190.5C 168.548,191.171 171.548,189.837 173.5,186.5C 170.359,185.679 167.025,185.179 163.5,185C 165.544,184.502 166.878,183.335 167.5,181.5C 169.348,174.439 171.348,167.439 173.5,160.5 Z"/></g>
<g><path style="opacity:1" fill="#fed62c" d="M 115.5,161.5 C 129.849,161.167 144.182,161.501 158.5,162.5C 157.833,163.5 157.167,164.5 156.5,165.5C 142.167,166.833 127.833,166.833 113.5,165.5C 114.18,164.14 114.847,162.807 115.5,161.5 Z"/></g>
<g><path style="opacity:1" fill="#fe7306" d="M 284.5,167.5 C 289.272,169.72 293.938,172.22 298.5,175C 304.228,180.718 303.562,185.718 296.5,190C 291.09,193.372 285.423,196.205 279.5,198.5C 279.062,198.565 278.728,198.399 278.5,198C 279.416,197.626 280.25,197.126 281,196.5C 281.814,188.587 281.647,180.754 280.5,173C 281.636,171.47 282.636,170.137 283.5,169C 282.288,167.893 282.621,167.393 284.5,167.5 Z"/></g>
<g><path style="opacity:1" fill="#fefcf5" d="M 192.5,171.5 C 192.5,173.833 192.5,176.167 192.5,178.5C 189.5,178.5 186.5,178.5 183.5,178.5C 183.674,176.139 184.007,173.806 184.5,171.5C 187.167,171.5 189.833,171.5 192.5,171.5 Z"/></g>
<g><path style="opacity:1" fill="#fea50f" d="M 223.5,170.5 C 223.586,171.496 223.252,172.329 222.5,173C 223.5,173.333 224.5,173.667 225.5,174C 224.167,174.667 223.167,175.667 222.5,177C 223.53,184.186 223.53,191.186 222.5,198C 223.199,201.8 223.865,205.633 224.5,209.5C 222.009,210.541 222.009,211.374 224.5,212C 222.454,213.842 220.12,215.009 217.5,215.5C 205.5,215.5 193.5,215.5 181.5,215.5C 182.609,214.71 183.942,214.21 185.5,214C 184.402,213.23 184.402,212.397 185.5,211.5C 188.167,211.5 190.833,211.5 193.5,211.5C 193.5,210.5 193.5,209.5 193.5,208.5C 200.354,208.824 207.021,208.491 213.5,207.5C 214.167,203.833 214.833,200.167 215.5,196.5C 208.167,196.5 200.833,196.5 193.5,196.5C 193.5,194.167 193.5,191.833 193.5,189.5C 201.352,189.825 209.018,189.492 216.5,188.5C 217.294,185.198 217.96,181.865 218.5,178.5C 210.167,178.5 201.833,178.5 193.5,178.5C 193.5,176.167 193.5,173.833 193.5,171.5C 203.582,171.807 213.582,171.474 223.5,170.5 Z"/></g>
<g><path style="opacity:1" fill="#fefefc" d="M 193.5,178.5 C 201.833,178.5 210.167,178.5 218.5,178.5C 217.96,181.865 217.294,185.198 216.5,188.5C 208.833,188.5 201.167,188.5 193.5,188.5C 193.5,185.167 193.5,181.833 193.5,178.5 Z"/></g>
<g><path style="opacity:1" fill="#ffcd39" d="M 167.5,181.5 C 166.878,183.335 165.544,184.502 163.5,185C 167.025,185.179 170.359,185.679 173.5,186.5C 162.147,186.832 150.814,186.499 139.5,185.5C 140.167,184.5 140.833,183.5 141.5,182.5C 150.141,181.502 158.808,181.169 167.5,181.5 Z"/></g>
<g><path style="opacity:1" fill="#fefcf7" d="M 179.5,189.5 C 183.833,189.5 188.167,189.5 192.5,189.5C 192.5,191.833 192.5,194.167 192.5,196.5C 187.456,196.827 182.456,196.494 177.5,195.5C 178.372,193.55 179.039,191.55 179.5,189.5 Z"/></g>
<g><path style="opacity:1" fill="#fefefc" d="M 193.5,196.5 C 200.833,196.5 208.167,196.5 215.5,196.5C 214.833,200.167 214.167,203.833 213.5,207.5C 206.833,207.5 200.167,207.5 193.5,207.5C 193.5,203.833 193.5,200.167 193.5,196.5 Z"/></g>
<g><path style="opacity:1" fill="#fee254" d="M 113.5,198.5 C 124.007,197.177 134.674,197.177 145.5,198.5C 145.376,199.107 145.043,199.44 144.5,199.5C 134.347,198.506 124.014,198.172 113.5,198.5 Z"/></g>
<g><path style="opacity:1" fill="#fedb1d" d="M 113.5,198.5 C 124.014,198.172 134.347,198.506 144.5,199.5C 144.196,200.15 143.863,200.817 143.5,201.5C 132.5,202.833 121.5,202.833 110.5,201.5C 111.188,200.145 112.188,199.145 113.5,198.5 Z"/></g>
<g><path style="opacity:1" fill="#ffda8e" d="M 192.5,160.5 C 192.833,160.5 193.167,160.5 193.5,160.5C 193.5,164.167 193.5,167.833 193.5,171.5C 193.5,173.833 193.5,176.167 193.5,178.5C 193.5,181.833 193.5,185.167 193.5,188.5C 201.167,188.5 208.833,188.5 216.5,188.5C 209.018,189.492 201.352,189.825 193.5,189.5C 193.5,191.833 193.5,194.167 193.5,196.5C 193.5,200.167 193.5,203.833 193.5,207.5C 200.167,207.5 206.833,207.5 213.5,207.5C 207.021,208.491 200.354,208.824 193.5,208.5C 193.5,209.5 193.5,210.5 193.5,211.5C 190.833,211.5 188.167,211.5 185.5,211.5C 173.5,211.5 161.5,211.5 149.5,211.5C 163.672,210.833 178.006,210.167 192.5,209.5C 181.674,208.833 171.008,208.167 160.5,207.5C 171.167,207.5 181.833,207.5 192.5,207.5C 192.5,203.833 192.5,200.167 192.5,196.5C 192.5,194.167 192.5,191.833 192.5,189.5C 188.167,189.5 183.833,189.5 179.5,189.5C 183.634,188.515 187.968,188.182 192.5,188.5C 192.5,185.167 192.5,181.833 192.5,178.5C 192.5,176.167 192.5,173.833 192.5,171.5C 192.5,167.833 192.5,164.167 192.5,160.5 Z"/></g>
<g><path style="opacity:1" fill="#febe0d" d="M 149.5,211.5 C 161.5,211.5 173.5,211.5 185.5,211.5C 184.402,212.397 184.402,213.23 185.5,214C 183.942,214.21 182.609,214.71 181.5,215.5C 169.988,215.828 158.654,215.495 147.5,214.5C 148.167,213.5 148.833,212.5 149.5,211.5 Z"/></g>
<g><path style="opacity:1" fill="#fed587" d="M 147.5,214.5 C 158.654,215.495 169.988,215.828 181.5,215.5C 193.5,215.5 205.5,215.5 217.5,215.5C 224.833,215.5 232.167,215.5 239.5,215.5C 241.167,215.5 242.833,215.5 244.5,215.5C 211.998,216.83 179.331,216.83 146.5,215.5C 146.624,214.893 146.957,214.56 147.5,214.5 Z"/></g>
<g><path style="opacity:1" fill="#feecb6" d="M 193.5,220.5 C 193.5,221.5 193.5,222.5 193.5,223.5C 187.833,223.5 182.167,223.5 176.5,223.5C 160.833,223.5 145.167,223.5 129.5,223.5C 150.892,223.144 172.225,222.144 193.5,220.5 Z"/></g>
<g><path style="opacity:1" fill="#fea80f" d="M 193.5,220.5 C 206.837,220.333 220.171,220.5 233.5,221C 229.171,223.164 224.838,225.331 220.5,227.5C 199.5,227.5 178.5,227.5 157.5,227.5C 163.653,226.672 169.987,226.172 176.5,226C 175.402,225.23 175.402,224.397 176.5,223.5C 182.167,223.5 187.833,223.5 193.5,223.5C 193.5,222.5 193.5,221.5 193.5,220.5 Z"/></g>
<g><path style="opacity:1" fill="#fec812" d="M 129.5,223.5 C 145.167,223.5 160.833,223.5 176.5,223.5C 175.402,224.397 175.402,225.23 176.5,226C 169.987,226.172 163.653,226.672 157.5,227.5C 147.319,227.827 137.319,227.494 127.5,226.5C 128.167,225.5 128.833,224.5 129.5,223.5 Z"/></g>
<g><path style="opacity:1" fill="#fed77e" d="M 127.5,226.5 C 137.319,227.494 147.319,227.827 157.5,227.5C 178.5,227.5 199.5,227.5 220.5,227.5C 189.331,228.83 157.997,228.83 126.5,227.5C 126.624,226.893 126.957,226.56 127.5,226.5 Z"/></g>
<g><path style="opacity:1" fill="#ffb93f" d="M 194.5,232.5 C 199.179,232.334 203.845,232.501 208.5,233C 204.814,235.455 200.814,236.455 196.5,236C 195.177,235.184 194.511,234.017 194.5,232.5 Z"/></g>
<g><path style="opacity:1" fill="#a4a4a4" d="M 282.5,245.5 C 283.568,244.566 284.901,244.232 286.5,244.5C 286.784,246.415 286.451,248.081 285.5,249.5C 285.5,248.167 285.5,246.833 285.5,245.5C 284.5,245.5 283.5,245.5 282.5,245.5 Z"/></g>
<g><path style="opacity:1" fill="#656565" d="M 268.5,246.5 C 255.754,246.187 243.087,246.52 230.5,247.5C 236.463,246.17 242.796,245.504 249.5,245.5C 256.009,245.5 262.342,245.834 268.5,246.5 Z"/></g>
<g><path style="opacity:1" fill="#373737" d="M 282.5,245.5 C 283.5,245.5 284.5,245.5 285.5,245.5C 285.5,246.833 285.5,248.167 285.5,249.5C 283.92,259.805 282.587,270.138 281.5,280.5C 278.5,280.5 275.5,280.5 272.5,280.5C 272.631,271.719 273.631,263.053 275.5,254.5C 276.404,253.791 276.737,252.791 276.5,251.5C 274.517,251.843 273.183,251.176 272.5,249.5C 272.5,248.5 272.5,247.5 272.5,246.5C 275.807,245.949 279.14,245.616 282.5,245.5 Z"/></g>
<g><path style="opacity:1" fill="#383838" d="M 299.5,273.5 C 302.625,274.479 305.958,274.813 309.5,274.5C 309.5,276.167 309.5,277.833 309.5,279.5C 302.833,279.5 296.167,279.5 289.5,279.5C 290.084,274.501 290.251,269.501 290,264.5C 288.667,265.167 287.333,265.833 286,266.5C 285.503,264.19 285.337,261.857 285.5,259.5C 287.827,259.335 289.993,258.669 292,257.5C 292.296,254.294 292.796,251.128 293.5,248C 293.265,247.127 292.931,246.293 292.5,245.5C 296.107,244.511 299.774,244.177 303.5,244.5C 302.841,247.455 302.508,250.455 302.5,253.5C 305.694,252.242 309.027,251.576 312.5,251.5C 312.739,253.467 312.406,255.301 311.5,257C 307.835,258.278 304.168,259.444 300.5,260.5C 300.414,264.857 300.08,269.19 299.5,273.5 Z"/></g>
<g><path style="opacity:1" fill="#2b2b2b" d="M 268.5,246.5 C 268.5,246.833 268.5,247.167 268.5,247.5C 258.494,247.334 248.494,247.5 238.5,248C 238.043,248.414 237.709,248.914 237.5,249.5C 268.138,250.831 268.138,251.498 237.5,251.5C 237.5,252.5 237.5,253.5 237.5,254.5C 247.348,254.173 257.014,254.506 266.5,255.5C 254.5,255.5 242.5,255.5 230.5,255.5C 230.5,253.833 230.5,252.167 230.5,250.5C 230.5,249.5 230.5,248.5 230.5,247.5C 243.087,246.52 255.754,246.187 268.5,246.5 Z"/></g>
<g><path style="opacity:1" fill="#5d5d5d" d="M 268.5,247.5 C 267.612,250.054 267.279,252.721 267.5,255.5C 267.167,255.5 266.833,255.5 266.5,255.5C 257.014,254.506 247.348,254.173 237.5,254.5C 237.5,253.5 237.5,252.5 237.5,251.5C 268.138,251.498 268.138,250.831 237.5,249.5C 237.709,248.914 238.043,248.414 238.5,248C 248.494,247.5 258.494,247.334 268.5,247.5 Z"/></g>
<g><path style="opacity:1" fill="#929292" d="M 103.5,249.5 C 113.319,248.506 123.319,248.173 133.5,248.5C 133.806,251.385 133.473,254.052 132.5,256.5C 132.5,254.167 132.5,251.833 132.5,249.5C 122.833,249.5 113.167,249.5 103.5,249.5 Z"/></g>
<g><path style="opacity:1" fill="#383838" d="M 103.5,249.5 C 113.167,249.5 122.833,249.5 132.5,249.5C 132.5,251.833 132.5,254.167 132.5,256.5C 129.5,256.5 126.5,256.5 123.5,256.5C 123.5,255.5 123.5,254.5 123.5,253.5C 119.5,253.5 115.5,253.5 111.5,253.5C 111.5,254.833 111.5,256.167 111.5,257.5C 110.725,262.484 110.058,267.484 109.5,272.5C 113.5,272.5 117.5,272.5 121.5,272.5C 121.848,268.915 121.181,265.582 119.5,262.5C 123.167,262.5 126.833,262.5 130.5,262.5C 130.5,263.833 130.5,265.167 130.5,266.5C 130.448,270.198 130.114,273.865 129.5,277.5C 119.917,277.818 110.417,277.485 101,276.5C 100.682,267.271 101.515,258.271 103.5,249.5 Z"/></g>
<g><path style="opacity:1" fill="#8e8e8e" d="M 272.5,249.5 C 273.183,251.176 274.517,251.843 276.5,251.5C 276.737,252.791 276.404,253.791 275.5,254.5C 274.817,252.824 273.483,252.157 271.5,252.5C 271.263,251.209 271.596,250.209 272.5,249.5 Z"/></g>
<g><path style="opacity:1" fill="#b4b4b4" d="M 132.5,256.5 C 129.375,257.479 126.042,257.813 122.5,257.5C 122.5,256.5 122.5,255.5 122.5,254.5C 119.167,254.5 115.833,254.5 112.5,254.5C 112.737,255.791 112.404,256.791 111.5,257.5C 111.5,256.167 111.5,254.833 111.5,253.5C 115.5,253.5 119.5,253.5 123.5,253.5C 123.5,254.5 123.5,255.5 123.5,256.5C 126.5,256.5 129.5,256.5 132.5,256.5 Z"/></g>
<g><path style="opacity:1" fill="#bcbcbc" d="M 180.5,260.5 C 180.217,261.289 179.717,261.956 179,262.5C 178.505,260.527 178.338,258.527 178.5,256.5C 175.833,256.5 173.167,256.5 170.5,256.5C 170.784,258.415 170.451,260.081 169.5,261.5C 169.5,259.5 169.5,257.5 169.5,255.5C 172.833,255.5 176.167,255.5 179.5,255.5C 179.216,257.415 179.549,259.081 180.5,260.5 Z"/></g>
<g><path style="opacity:1" fill="#a8a8a8" d="M 230.5,250.5 C 230.5,252.167 230.5,253.833 230.5,255.5C 242.5,255.5 254.5,255.5 266.5,255.5C 266.833,255.5 267.167,255.5 267.5,255.5C 268.278,256.156 268.944,256.989 269.5,258C 269.43,258.765 269.097,259.265 268.5,259.5C 255.208,257.518 241.541,256.851 227.5,257.5C 228.895,255.307 229.895,252.974 230.5,250.5 Z"/></g>
<g><path style="opacity:1" fill="#333333" d="M 161.5,275.5 C 154.352,276.492 147.019,276.825 139.5,276.5C 138.12,276.038 137.453,275.038 137.5,273.5C 138.046,271.865 138.38,270.199 138.5,268.5C 139.404,267.791 139.737,266.791 139.5,265.5C 144.363,265.819 149.03,265.486 153.5,264.5C 154.234,263.292 154.567,261.959 154.5,260.5C 149.71,262.034 144.71,262.701 139.5,262.5C 139.833,260.5 140.167,258.5 140.5,256.5C 148.167,256.5 155.833,256.5 163.5,256.5C 162.459,262.79 161.792,269.123 161.5,275.5 Z"/></g>
<g><path style="opacity:1" fill="#343434" d="M 180.5,260.5 C 183.993,256.706 188.326,255.539 193.5,257C 188.333,261.5 183.167,266 178,270.5C 177.505,272.473 177.338,274.473 177.5,276.5C 174.5,276.5 171.5,276.5 168.5,276.5C 168.5,275.5 168.5,274.5 168.5,273.5C 168.646,269.481 168.979,265.481 169.5,261.5C 170.451,260.081 170.784,258.415 170.5,256.5C 173.167,256.5 175.833,256.5 178.5,256.5C 178.338,258.527 178.505,260.527 179,262.5C 179.717,261.956 180.217,261.289 180.5,260.5 Z"/></g>
<g><path style="opacity:1" fill="#363636" d="M 196.5,257.5 C 199.625,256.521 202.958,256.187 206.5,256.5C 207.522,268.052 209.522,268.052 212.5,256.5C 215.85,256.335 219.183,256.502 222.5,257C 217.206,266.42 212.04,275.92 207,285.5C 205.178,287.045 203.011,287.712 200.5,287.5C 198.833,287.333 197.167,287.167 195.5,287C 198.205,283.758 200.539,280.258 202.5,276.5C 200.49,270.063 198.49,263.729 196.5,257.5 Z"/></g>
<g><path style="opacity:1" fill="#2d2d2d" d="M 227.5,257.5 C 241.541,256.851 255.208,257.518 268.5,259.5C 254.833,259.5 241.167,259.5 227.5,259.5C 227.5,258.833 227.5,258.167 227.5,257.5 Z"/></g>
<g><path style="opacity:1" fill="#959595" d="M 227.5,259.5 C 241.167,259.5 254.833,259.5 268.5,259.5C 267.158,261.361 266.158,263.361 265.5,265.5C 265.5,264.167 265.5,262.833 265.5,261.5C 253.167,261.5 240.833,261.5 228.5,261.5C 228.167,260.833 227.833,260.167 227.5,259.5 Z"/></g>
<g><path style="opacity:1" fill="#868686" d="M 119.5,262.5 C 123.298,261.517 127.298,261.183 131.5,261.5C 131.784,263.415 131.451,265.081 130.5,266.5C 130.5,265.167 130.5,263.833 130.5,262.5C 126.833,262.5 123.167,262.5 119.5,262.5 Z"/></g>
<g><path style="opacity:1" fill="#373737" d="M 228.5,261.5 C 240.833,261.5 253.167,261.5 265.5,261.5C 265.5,262.833 265.5,264.167 265.5,265.5C 265.5,267.167 265.5,268.833 265.5,270.5C 245.5,271.167 245.5,271.833 265.5,272.5C 265.5,273.167 265.5,273.833 265.5,274.5C 245.5,275.167 245.5,275.833 265.5,276.5C 265.5,277.5 265.5,278.5 265.5,279.5C 251.833,279.5 238.167,279.5 224.5,279.5C 224.5,278.5 224.5,277.5 224.5,276.5C 230.206,276.829 235.872,276.495 241.5,275.5C 236.1,275.131 231.1,274.131 226.5,272.5C 231.544,272.827 236.544,272.494 241.5,271.5C 237.217,270.508 232.884,270.174 228.5,270.5C 228.5,268.5 228.5,266.5 228.5,264.5C 228.5,263.5 228.5,262.5 228.5,261.5 Z"/></g>
<g><path style="opacity:1" fill="#6d6d6d" d="M 153.5,264.5 C 149.03,265.486 144.363,265.819 139.5,265.5C 139.737,266.791 139.404,267.791 138.5,268.5C 138.5,267.167 138.5,265.833 138.5,264.5C 143.5,264.5 148.5,264.5 153.5,264.5 Z"/></g>
<g><path style="opacity:1" fill="#e6e6e6" d="M 147.5,269.5 C 149.167,269.5 150.833,269.5 152.5,269.5C 152.5,270.5 152.5,271.5 152.5,272.5C 150.833,272.5 149.167,272.5 147.5,272.5C 147.5,271.5 147.5,270.5 147.5,269.5 Z"/></g>
<g><path style="opacity:1" fill="#a0a0a0" d="M 228.5,264.5 C 228.5,266.5 228.5,268.5 228.5,270.5C 232.884,270.174 237.217,270.508 241.5,271.5C 236.544,272.494 231.544,272.827 226.5,272.5C 227.078,269.72 227.745,267.053 228.5,264.5 Z"/></g>
<g><path style="opacity:1" fill="#9f9f9f" d="M 265.5,270.5 C 265.5,271.167 265.5,271.833 265.5,272.5C 245.5,271.833 245.5,271.167 265.5,270.5 Z"/></g>
<g><path style="opacity:1" fill="#989898" d="M 299.5,273.5 C 303.167,273.5 306.833,273.5 310.5,273.5C 310.795,275.735 310.461,277.735 309.5,279.5C 309.5,277.833 309.5,276.167 309.5,274.5C 305.958,274.813 302.625,274.479 299.5,273.5 Z"/></g>
<g><path style="opacity:1" fill="#a5a5a5" d="M 226.5,272.5 C 231.1,274.131 236.1,275.131 241.5,275.5C 235.872,276.495 230.206,276.829 224.5,276.5C 224.989,275.005 225.655,273.671 226.5,272.5 Z"/></g>
<g><path style="opacity:1" fill="#a2a2a2" d="M 265.5,274.5 C 266.72,276.284 266.72,277.95 265.5,279.5C 265.5,278.5 265.5,277.5 265.5,276.5C 245.5,275.833 245.5,275.167 265.5,274.5 Z"/></g>
<g><path style="opacity:1" fill="#848484" d="M 161.5,275.5 C 162.043,275.56 162.376,275.893 162.5,276.5C 154.677,277.82 147.01,277.82 139.5,276.5C 147.019,276.825 154.352,276.492 161.5,275.5 Z"/></g>
<g><path style="opacity:1" fill="#8a8a8a" d="M 168.5,273.5 C 168.5,274.5 168.5,275.5 168.5,276.5C 171.5,276.5 174.5,276.5 177.5,276.5C 174.375,277.479 171.042,277.813 167.5,277.5C 167.232,275.901 167.566,274.568 168.5,273.5 Z"/></g>
</svg>
