<?xml version="1.0" encoding="UTF-8"?>
<!DOCTYPE svg PUBLIC "-//W3C//DTD SVG 1.1//EN" "http://www.w3.org/Graphics/SVG/1.1/DTD/svg11.dtd">
<svg xmlns="http://www.w3.org/2000/svg" version="1.1" width="1039px" height="606px" style="shape-rendering:geometricPrecision; text-rendering:geometricPrecision; image-rendering:optimizeQuality; fill-rule:evenodd; clip-rule:evenodd" xmlns:xlink="http://www.w3.org/1999/xlink">
<g><path style="opacity:0.987" fill="#ffab0b" d="M 514.5,60.5 C 512.513,78.1356 511.847,96.1356 512.5,114.5C 509.941,114.198 507.607,114.532 505.5,115.5C 492.833,115.5 480.167,115.5 467.5,115.5C 467.5,99.1667 467.5,82.8333 467.5,66.5C 471.423,61.1005 476.756,57.9338 483.5,57C 494.252,55.6638 504.585,56.8305 514.5,60.5 Z"/></g>
<g><path style="opacity:0.983" fill="#ffa50a" d="M 514.5,60.5 C 529.939,65.5541 544.605,72.2208 558.5,80.5C 558.5,92.1667 558.5,103.833 558.5,115.5C 540.833,115.5 523.167,115.5 505.5,115.5C 507.607,114.532 509.941,114.198 512.5,114.5C 511.847,96.1356 512.513,78.1356 514.5,60.5 Z"/></g>
<g><path style="opacity:0.978" fill="#ffb10c" d="M 467.5,66.5 C 467.5,82.8333 467.5,99.1667 467.5,115.5C 452.5,115.5 437.5,115.5 422.5,115.5C 420.052,114.527 417.385,114.194 414.5,114.5C 414.5,107.167 414.5,99.8333 414.5,92.5C 428.5,92.5 442.5,92.5 456.5,92.5C 457.279,86.6587 458.779,80.992 461,75.5C 462.643,72.0386 464.81,69.0386 467.5,66.5 Z"/></g>
<g><path style="opacity:0.964" fill="#ff9f08" d="M 558.5,80.5 C 582.421,91.4602 606.087,102.96 629.5,115C 605.836,115.5 582.169,115.667 558.5,115.5C 558.5,103.833 558.5,92.1667 558.5,80.5 Z"/></g>
<g><path style="opacity:0.964" fill="#ffc30f" d="M 323.5,92.5 C 323.5,99.8333 323.5,107.167 323.5,114.5C 320.941,114.198 318.607,114.532 316.5,115.5C 305.48,115.832 294.48,115.499 283.5,114.5C 288.042,107.248 292.709,100.081 297.5,93C 306.16,92.5002 314.827,92.3336 323.5,92.5 Z"/></g>
<g><path style="opacity:0.97" fill="#ffbe0e" d="M 323.5,92.5 C 341.167,92.5 358.833,92.5 376.5,92.5C 374.393,93.4682 372.059,93.8016 369.5,93.5C 369.5,100.833 369.5,108.167 369.5,115.5C 351.833,115.5 334.167,115.5 316.5,115.5C 318.607,114.532 320.941,114.198 323.5,114.5C 323.5,107.167 323.5,99.8333 323.5,92.5 Z"/></g>
<g><path style="opacity:0.972" fill="#ffb80d" d="M 376.5,92.5 C 389.167,92.5 401.833,92.5 414.5,92.5C 414.5,99.8333 414.5,107.167 414.5,114.5C 417.385,114.194 420.052,114.527 422.5,115.5C 404.833,115.5 387.167,115.5 369.5,115.5C 369.5,108.167 369.5,100.833 369.5,93.5C 372.059,93.8016 374.393,93.4682 376.5,92.5 Z"/></g>
<g><path style="opacity:0.97" fill="#ffb10c" d="M 467.5,137.5 C 467.5,149.167 467.5,160.833 467.5,172.5C 470.385,172.194 473.052,172.527 475.5,173.5C 452.833,173.5 430.167,173.5 407.5,173.5C 409.607,172.532 411.941,172.198 414.5,172.5C 414.5,165.5 414.5,158.5 414.5,151.5C 417.385,151.806 420.052,151.473 422.5,150.5C 433.5,150.5 444.5,150.5 455.5,150.5C 455.5,146.167 455.5,141.833 455.5,137.5C 459.5,137.5 463.5,137.5 467.5,137.5 Z"/></g>
<g><path style="opacity:0.985" fill="#ffab0b" d="M 467.5,137.5 C 482.5,137.5 497.5,137.5 512.5,137.5C 512.5,149.5 512.5,161.5 512.5,173.5C 500.167,173.5 487.833,173.5 475.5,173.5C 473.052,172.527 470.385,172.194 467.5,172.5C 467.5,160.833 467.5,149.167 467.5,137.5 Z"/></g>
<g><path style="opacity:0.983" fill="#ffa50a" d="M 512.5,137.5 C 527.833,137.5 543.167,137.5 558.5,137.5C 558.5,149.5 558.5,161.5 558.5,173.5C 543.167,173.5 527.833,173.5 512.5,173.5C 512.5,161.5 512.5,149.5 512.5,137.5 Z"/></g>
<g><path style="opacity:0.984" fill="#ff9f09" d="M 558.5,137.5 C 573.5,137.5 588.5,137.5 603.5,137.5C 603.5,162.5 603.5,187.5 603.5,212.5C 606.385,212.194 609.052,212.527 611.5,213.5C 593.833,213.5 576.167,213.5 558.5,213.5C 558.5,207.833 558.5,202.167 558.5,196.5C 559.791,196.737 560.791,196.404 561.5,195.5C 565.572,188.36 569.905,181.36 574.5,174.5C 569.208,173.505 563.875,173.172 558.5,173.5C 558.5,161.5 558.5,149.5 558.5,137.5 Z"/></g>
<g><path style="opacity:0.998" fill="#ff9808" d="M 603.5,137.5 C 621.167,137.5 638.833,137.5 656.5,137.5C 656.5,252.5 656.5,367.5 656.5,482.5C 638.833,482.5 621.167,482.5 603.5,482.5C 603.833,406.998 603.499,331.665 602.5,256.5C 606.9,242.297 610.9,227.964 614.5,213.5C 613.5,213.5 612.5,213.5 611.5,213.5C 609.052,212.527 606.385,212.194 603.5,212.5C 603.5,187.5 603.5,162.5 603.5,137.5 Z"/></g>
<g><path style="opacity:0.998" fill="#ff9207" d="M 656.5,137.5 C 663.175,137.334 669.842,137.5 676.5,138C 683.592,141.546 690.592,145.046 697.5,148.5C 697.5,259.833 697.5,371.167 697.5,482.5C 683.833,482.5 670.167,482.5 656.5,482.5C 656.5,367.5 656.5,252.5 656.5,137.5 Z"/></g>
<g><path style="opacity:0.998" fill="#ff9005" d="M 697.5,148.5 C 699.284,148.893 700.95,149.559 702.5,150.5C 701.167,261.167 701.167,371.833 702.5,482.5C 701.001,483.494 699.334,483.494 697.5,482.5C 697.5,371.167 697.5,259.833 697.5,148.5 Z"/></g>
<g><path style="opacity:0.968" fill="#ffd211" d="M 233.5,150.5 C 231.052,151.473 228.385,151.806 225.5,151.5C 225.5,158.833 225.5,166.167 225.5,173.5C 203.157,173.833 180.823,173.5 158.5,172.5C 163.167,165.5 167.833,158.5 172.5,151.5C 192.822,150.5 213.156,150.167 233.5,150.5 Z"/></g>
<g><path style="opacity:0.973" fill="#ffcb10" d="M 233.5,150.5 C 248.5,150.5 263.5,150.5 278.5,150.5C 278.5,158.167 278.5,165.833 278.5,173.5C 260.833,173.5 243.167,173.5 225.5,173.5C 225.5,166.167 225.5,158.833 225.5,151.5C 228.385,151.806 231.052,151.473 233.5,150.5 Z"/></g>
<g><path style="opacity:0.972" fill="#ffc40f" d="M 278.5,150.5 C 291.167,150.5 303.833,150.5 316.5,150.5C 318.607,151.468 320.941,151.802 323.5,151.5C 323.5,158.5 323.5,165.5 323.5,172.5C 326.385,172.194 329.052,172.527 331.5,173.5C 313.833,173.5 296.167,173.5 278.5,173.5C 278.5,165.833 278.5,158.167 278.5,150.5 Z"/></g>
<g><path style="opacity:0.97" fill="#ffbe0e" d="M 316.5,150.5 C 334.167,150.5 351.833,150.5 369.5,150.5C 369.5,158.167 369.5,165.833 369.5,173.5C 356.833,173.5 344.167,173.5 331.5,173.5C 329.052,172.527 326.385,172.194 323.5,172.5C 323.5,165.5 323.5,158.5 323.5,151.5C 320.941,151.802 318.607,151.468 316.5,150.5 Z"/></g>
<g><path style="opacity:0.97" fill="#ffb80d" d="M 369.5,150.5 C 387.167,150.5 404.833,150.5 422.5,150.5C 420.052,151.473 417.385,151.806 414.5,151.5C 414.5,158.5 414.5,165.5 414.5,172.5C 411.941,172.198 409.607,172.532 407.5,173.5C 394.833,173.5 382.167,173.5 369.5,173.5C 369.5,165.833 369.5,158.167 369.5,150.5 Z"/></g>
<g><path style="opacity:0.998" fill="#ff8c05" d="M 702.5,150.5 C 717.691,157.928 732.691,165.595 747.5,173.5C 747.167,269.335 747.501,365.001 748.5,460.5C 733.479,468.343 718.146,475.676 702.5,482.5C 701.167,371.833 701.167,261.167 702.5,150.5 Z"/></g>
<g><path style="opacity:0.997" fill="#ff8604" d="M 747.5,173.5 C 762.479,179.991 777.146,186.991 791.5,194.5C 792.167,276.167 792.833,357.833 793.5,439.5C 778.625,446.771 763.625,453.771 748.5,460.5C 747.501,365.001 747.167,269.335 747.5,173.5 Z"/></g>
<g><path style="opacity:0.996" fill="#ff8003" d="M 791.5,194.5 C 809.813,202.658 827.813,211.324 845.5,220.5C 845.5,285.167 845.5,349.833 845.5,414.5C 828.412,423.204 811.079,431.537 793.5,439.5C 792.833,357.833 792.167,276.167 791.5,194.5 Z"/></g>
<g><path style="opacity:0.957" fill="#ffac0b" d="M 512.5,195.5 C 512.5,201.167 512.5,206.833 512.5,212.5C 509.941,212.198 507.607,212.532 505.5,213.5C 489.167,213.5 472.833,213.5 456.5,213.5C 456.5,212.833 456.167,212.5 455.5,212.5C 455.5,206.833 455.5,201.167 455.5,195.5C 474.5,195.5 493.5,195.5 512.5,195.5 Z"/></g>
<g><path style="opacity:0.944" fill="#ffa50a" d="M 512.5,195.5 C 528.833,195.5 545.167,195.5 561.5,195.5C 560.791,196.404 559.791,196.737 558.5,196.5C 558.5,202.167 558.5,207.833 558.5,213.5C 540.833,213.5 523.167,213.5 505.5,213.5C 507.607,212.532 509.941,212.198 512.5,212.5C 512.5,206.833 512.5,201.167 512.5,195.5 Z"/></g>
<g><path style="opacity:0.987" fill="#ffbe0e" d="M 376.5,212.5 C 374.393,213.468 372.059,213.802 369.5,213.5C 369.5,290.167 369.5,366.833 369.5,443.5C 354.167,443.5 338.833,443.5 323.5,443.5C 323.5,415.5 323.5,387.5 323.5,359.5C 331.84,359.666 340.173,359.5 348.5,359C 352.5,352.667 356.5,346.333 360.5,340C 350.839,339.5 341.172,339.334 331.5,339.5C 329.052,338.527 326.385,338.194 323.5,338.5C 323.5,331.833 323.5,325.167 323.5,318.5C 326.385,318.806 329.052,318.473 331.5,317.5C 341.37,282.557 351.037,247.557 360.5,212.5C 365.833,212.5 371.167,212.5 376.5,212.5 Z"/></g>
<g><path style="opacity:0.992" fill="#ffb80d" d="M 376.5,212.5 C 389.167,212.5 401.833,212.5 414.5,212.5C 414.5,231.5 414.5,250.5 414.5,269.5C 412.15,279.567 409.483,289.567 406.5,299.5C 409.086,300.48 411.753,300.813 414.5,300.5C 414.5,317.5 414.5,334.5 414.5,351.5C 406.833,351.5 399.167,351.5 391.5,351.5C 388.503,363.494 385.503,375.494 382.5,387.5C 395.833,387.5 409.167,387.5 422.5,387.5C 420.052,388.473 417.385,388.806 414.5,388.5C 414.5,406.833 414.5,425.167 414.5,443.5C 399.5,443.5 384.5,443.5 369.5,443.5C 369.5,366.833 369.5,290.167 369.5,213.5C 372.059,213.802 374.393,213.468 376.5,212.5 Z"/></g>
<g><path style="opacity:0.991" fill="#ffde13" d="M 134.5,219.5 C 135.562,227.105 135.562,234.771 134.5,242.5C 112.49,242.833 90.4899,242.5 68.5,241.5C 73.0422,234.248 77.7089,227.081 82.5,220C 99.8301,219.5 117.163,219.333 134.5,219.5 Z"/></g>
<g><path style="opacity:0.987" fill="#ffd111" d="M 180.5,219.5 C 198.167,219.5 215.833,219.5 233.5,219.5C 231.052,220.473 228.385,220.806 225.5,220.5C 225.5,227.5 225.5,234.5 225.5,241.5C 228.385,241.194 231.052,241.527 233.5,242.5C 215.833,242.5 198.167,242.5 180.5,242.5C 180.5,234.833 180.5,227.167 180.5,219.5 Z"/></g>
<g><path style="opacity:0.988" fill="#ffca10" d="M 233.5,219.5 C 252.503,219.333 271.503,219.5 290.5,220C 285.709,227.081 281.042,234.248 276.5,241.5C 262.182,242.499 247.849,242.833 233.5,242.5C 231.052,241.527 228.385,241.194 225.5,241.5C 225.5,234.5 225.5,227.5 225.5,220.5C 228.385,220.806 231.052,220.473 233.5,219.5 Z"/></g>
<g><path style="opacity:1" fill="#ffd712" d="M 134.5,219.5 C 149.833,219.5 165.167,219.5 180.5,219.5C 180.5,227.167 180.5,234.833 180.5,242.5C 165.167,242.5 149.833,242.5 134.5,242.5C 135.562,234.771 135.562,227.105 134.5,219.5 Z"/></g>
<g><path style="opacity:0.995" fill="#ff7902" d="M 845.5,220.5 C 860.938,227.053 875.938,234.386 890.5,242.5C 890.5,292.833 890.5,343.167 890.5,393.5C 875.625,400.771 860.625,407.771 845.5,414.5C 845.5,349.833 845.5,285.167 845.5,220.5 Z"/></g>
<g><path style="opacity:0.993" fill="#ff7301" d="M 890.5,242.5 C 906.471,249.484 921.804,257.484 936.5,266.5C 935.84,300.517 936.507,334.183 938.5,367.5C 922.854,376.659 906.854,385.326 890.5,393.5C 890.5,343.167 890.5,292.833 890.5,242.5 Z"/></g>
<g><path style="opacity:0.992" fill="#ff9f09" d="M 602.5,256.5 C 603.499,331.665 603.833,406.998 603.5,482.5C 590.833,482.5 578.167,482.5 565.5,482.5C 563.393,481.532 561.059,481.198 558.5,481.5C 558.5,461.5 558.5,441.5 558.5,421.5C 560.956,410.509 563.956,399.676 567.5,389C 566.906,388.536 566.239,388.369 565.5,388.5C 563.393,387.532 561.059,387.198 558.5,387.5C 558.5,375.5 558.5,363.5 558.5,351.5C 561.059,351.802 563.393,351.468 565.5,350.5C 567.48,349.152 568.647,347.152 569,344.5C 572.784,329.859 576.951,315.359 581.5,301C 573.841,300.5 566.174,300.334 558.5,300.5C 558.5,289.5 558.5,278.5 558.5,267.5C 555.615,267.806 552.948,267.473 550.5,266.5C 566.837,266.667 583.17,266.5 599.5,266C 600.885,262.961 601.885,259.794 602.5,256.5 Z"/></g>
<g><path style="opacity:0.987" fill="#ffb20c" d="M 414.5,212.5 C 428.167,212.5 441.833,212.5 455.5,212.5C 456.167,212.5 456.5,212.833 456.5,213.5C 456.5,231.167 456.5,248.833 456.5,266.5C 457.833,266.5 459.167,266.5 460.5,266.5C 462.607,267.468 464.941,267.802 467.5,267.5C 467.5,278.5 467.5,289.5 467.5,300.5C 463.833,300.5 460.167,300.5 456.5,300.5C 456.5,317.167 456.5,333.833 456.5,350.5C 455.833,350.5 455.5,350.833 455.5,351.5C 441.833,351.5 428.167,351.5 414.5,351.5C 414.5,334.5 414.5,317.5 414.5,300.5C 428.167,300.5 441.833,300.5 455.5,300.5C 455.5,289.5 455.5,278.5 455.5,267.5C 441.588,266.879 427.921,267.546 414.5,269.5C 414.5,250.5 414.5,231.5 414.5,212.5 Z"/></g>
<g><path style="opacity:0.98" fill="#ffab0b" d="M 460.5,266.5 C 475.5,266.5 490.5,266.5 505.5,266.5C 507.607,267.468 509.941,267.802 512.5,267.5C 512.5,278.5 512.5,289.5 512.5,300.5C 497.5,300.5 482.5,300.5 467.5,300.5C 467.5,289.5 467.5,278.5 467.5,267.5C 464.941,267.802 462.607,267.468 460.5,266.5 Z"/></g>
<g><path style="opacity:0.981" fill="#ffa50a" d="M 505.5,266.5 C 520.5,266.5 535.5,266.5 550.5,266.5C 552.948,267.473 555.615,267.806 558.5,267.5C 558.5,278.5 558.5,289.5 558.5,300.5C 543.167,300.5 527.833,300.5 512.5,300.5C 512.5,289.5 512.5,278.5 512.5,267.5C 509.941,267.802 507.607,267.468 505.5,266.5 Z"/></g>
<g><path style="opacity:0.986" fill="#ff6d00" d="M 936.5,266.5 C 1001.12,298.896 1001.79,332.562 938.5,367.5C 936.507,334.183 935.84,300.517 936.5,266.5 Z"/></g>
<g><path style="opacity:0.891" fill="#ffd011" d="M 255.5,317.5 C 255.5,317.833 255.5,318.167 255.5,318.5C 245.5,318.5 235.5,318.5 225.5,318.5C 225.5,325.5 225.5,332.5 225.5,339.5C 215.161,339.666 204.828,339.5 194.5,339C 198.833,332 203.167,325 207.5,318C 223.497,317.5 239.497,317.333 255.5,317.5 Z"/></g>
<g><path style="opacity:0.916" fill="#ffc40f" d="M 255.5,318.5 C 255.5,318.167 255.5,317.833 255.5,317.5C 280.833,317.5 306.167,317.5 331.5,317.5C 329.052,318.473 326.385,318.806 323.5,318.5C 323.5,325.167 323.5,331.833 323.5,338.5C 326.385,338.194 329.052,338.527 331.5,339.5C 316.5,339.5 301.5,339.5 286.5,339.5C 284.052,338.527 281.385,338.194 278.5,338.5C 278.5,331.833 278.5,325.167 278.5,318.5C 270.833,318.5 263.167,318.5 255.5,318.5 Z"/></g>
<g><path style="opacity:0.982" fill="#ffcb10" d="M 255.5,318.5 C 263.167,318.5 270.833,318.5 278.5,318.5C 278.5,325.167 278.5,331.833 278.5,338.5C 281.385,338.194 284.052,338.527 286.5,339.5C 266.167,339.5 245.833,339.5 225.5,339.5C 225.5,332.5 225.5,325.5 225.5,318.5C 235.5,318.5 245.5,318.5 255.5,318.5 Z"/></g>
<g><path style="opacity:0.97" fill="#ffab0b" d="M 455.5,351.5 C 455.5,350.833 455.833,350.5 456.5,350.5C 475.167,350.5 493.833,350.5 512.5,350.5C 512.5,363.167 512.5,375.833 512.5,388.5C 500.5,388.5 488.5,388.5 476.5,388.5C 473.713,387.523 470.713,387.19 467.5,387.5C 467.5,375.5 467.5,363.5 467.5,351.5C 463.5,351.5 459.5,351.5 455.5,351.5 Z"/></g>
<g><path style="opacity:0.958" fill="#ffa50a" d="M 512.5,350.5 C 530.167,350.5 547.833,350.5 565.5,350.5C 563.393,351.468 561.059,351.802 558.5,351.5C 558.5,363.5 558.5,375.5 558.5,387.5C 561.059,387.198 563.393,387.532 565.5,388.5C 547.833,388.5 530.167,388.5 512.5,388.5C 512.5,375.833 512.5,363.167 512.5,350.5 Z"/></g>
<g><path style="opacity:0.962" fill="#ffc20e" d="M 323.5,359.5 C 323.5,387.5 323.5,415.5 323.5,443.5C 314.475,443.832 305.475,443.498 296.5,442.5C 304.375,414.878 312.041,387.211 319.5,359.5C 320.833,359.5 322.167,359.5 323.5,359.5 Z"/></g>
<g><path style="opacity:0.978" fill="#ffb10c" d="M 455.5,351.5 C 459.5,351.5 463.5,351.5 467.5,351.5C 467.5,363.5 467.5,375.5 467.5,387.5C 470.713,387.19 473.713,387.523 476.5,388.5C 469.5,388.5 462.5,388.5 455.5,388.5C 455.5,406.5 455.5,424.5 455.5,442.5C 459.5,442.5 463.5,442.5 467.5,442.5C 467.5,455.833 467.5,469.167 467.5,482.5C 449.833,482.5 432.167,482.5 414.5,482.5C 414.5,474.833 414.5,467.167 414.5,459.5C 427.833,459.5 441.167,459.5 454.5,459.5C 454.5,454.167 454.5,448.833 454.5,443.5C 441.167,443.5 427.833,443.5 414.5,443.5C 414.5,425.167 414.5,406.833 414.5,388.5C 417.385,388.806 420.052,388.473 422.5,387.5C 433.167,387.5 443.833,387.5 454.5,387.5C 455.206,375.513 455.539,363.513 455.5,351.5 Z"/></g>
<g><path style="opacity:0.974" fill="#ffde13" d="M 142.5,393.5 C 139.972,394.166 137.306,394.832 134.5,395.5C 134.739,402.053 135.073,409.053 135.5,416.5C 108.825,416.833 82.1583,416.5 55.5,415.5C 60.0422,408.248 64.7089,401.081 69.5,394C 93.8311,393.5 118.164,393.333 142.5,393.5 Z"/></g>
<g><path style="opacity:0.979" fill="#ffd712" d="M 142.5,393.5 C 152.5,393.5 162.5,393.5 172.5,393.5C 174.948,394.473 177.615,394.806 180.5,394.5C 180.5,401.833 180.5,409.167 180.5,416.5C 165.5,416.5 150.5,416.5 135.5,416.5C 135.073,409.053 134.739,402.053 134.5,395.5C 137.306,394.832 139.972,394.166 142.5,393.5 Z"/></g>
<g><path style="opacity:0.958" fill="#ffd111" d="M 172.5,393.5 C 190.845,393.167 209.179,393.5 227.5,394.5C 222.958,401.752 218.291,408.919 213.5,416C 202.505,416.5 191.505,416.667 180.5,416.5C 180.5,409.167 180.5,401.833 180.5,394.5C 177.615,394.806 174.948,394.473 172.5,393.5 Z"/></g>
<g><path style="opacity:0.984" fill="#ffa50a" d="M 558.5,421.5 C 558.5,441.5 558.5,461.5 558.5,481.5C 561.059,481.198 563.393,481.532 565.5,482.5C 547.833,482.5 530.167,482.5 512.5,482.5C 512.5,469.167 512.5,455.833 512.5,442.5C 525.833,442.5 539.167,442.5 552.5,442.5C 554.055,435.267 556.055,428.267 558.5,421.5 Z"/></g>
<g><path style="opacity:0.988" fill="#ffab0b" d="M 467.5,442.5 C 482.5,442.5 497.5,442.5 512.5,442.5C 512.5,455.833 512.5,469.167 512.5,482.5C 497.5,482.5 482.5,482.5 467.5,482.5C 467.5,469.167 467.5,455.833 467.5,442.5 Z"/></g>
<g><path style="opacity:0.976" fill="#ffca10" d="M 278.5,459.5 C 278.5,467.167 278.5,474.833 278.5,482.5C 262.83,482.667 247.163,482.5 231.5,482C 235.97,474.698 240.637,467.532 245.5,460.5C 256.48,459.501 267.48,459.168 278.5,459.5 Z"/></g>
<g><path style="opacity:0.988" fill="#ffc40f" d="M 278.5,459.5 C 293.5,459.5 308.5,459.5 323.5,459.5C 323.5,467.167 323.5,474.833 323.5,482.5C 308.5,482.5 293.5,482.5 278.5,482.5C 278.5,474.833 278.5,467.167 278.5,459.5 Z"/></g>
<g><path style="opacity:0.987" fill="#ffbe0e" d="M 323.5,459.5 C 341.167,459.5 358.833,459.5 376.5,459.5C 374.393,460.468 372.059,460.802 369.5,460.5C 369.5,467.5 369.5,474.5 369.5,481.5C 372.059,481.198 374.393,481.532 376.5,482.5C 358.833,482.5 341.167,482.5 323.5,482.5C 323.5,474.833 323.5,467.167 323.5,459.5 Z"/></g>
<g><path style="opacity:0.99" fill="#ffb80d" d="M 376.5,459.5 C 389.167,459.5 401.833,459.5 414.5,459.5C 414.5,467.167 414.5,474.833 414.5,482.5C 401.833,482.5 389.167,482.5 376.5,482.5C 374.393,481.532 372.059,481.198 369.5,481.5C 369.5,474.5 369.5,467.5 369.5,460.5C 372.059,460.802 374.393,460.468 376.5,459.5 Z"/></g>
<g><path style="opacity:0.994" fill="#ffab0b" d="M 467.5,504.5 C 482.5,504.5 497.5,504.5 512.5,504.5C 512.5,516.5 512.5,528.5 512.5,540.5C 497.5,540.5 482.5,540.5 467.5,540.5C 467.5,528.5 467.5,516.5 467.5,504.5 Z"/></g>
<g><path style="opacity:0.992" fill="#ffa50a" d="M 512.5,504.5 C 530.167,504.5 547.833,504.5 565.5,504.5C 563.393,505.468 561.059,505.802 558.5,505.5C 558.5,517.167 558.5,528.833 558.5,540.5C 543.167,540.5 527.833,540.5 512.5,540.5C 512.5,528.5 512.5,516.5 512.5,504.5 Z"/></g>
<g><path style="opacity:0.988" fill="#ff9f09" d="M 565.5,504.5 C 578.167,504.5 590.833,504.5 603.5,504.5C 603.5,513.5 603.5,522.5 603.5,531.5C 597.487,534.231 591.487,537.064 585.5,540C 576.506,540.5 567.506,540.666 558.5,540.5C 558.5,528.833 558.5,517.167 558.5,505.5C 561.059,505.802 563.393,505.468 565.5,504.5 Z"/></g>
<g><path style="opacity:0.958" fill="#ff9a08" d="M 603.5,504.5 C 621.17,504.333 638.836,504.5 656.5,505C 638.838,513.831 621.171,522.664 603.5,531.5C 603.5,522.5 603.5,513.5 603.5,504.5 Z"/></g>
<g><path style="opacity:0.997" fill="#ffb10c" d="M 467.5,504.5 C 467.5,516.5 467.5,528.5 467.5,540.5C 449.833,540.5 432.167,540.5 414.5,540.5C 414.5,532.833 414.5,525.167 414.5,517.5C 427.833,517.5 441.167,517.5 454.5,517.5C 454.5,513.167 454.5,508.833 454.5,504.5C 458.833,504.5 463.167,504.5 467.5,504.5 Z"/></g>
<g><path style="opacity:0.978" fill="#ffd712" d="M 187.5,517.5 C 185.393,518.468 183.059,518.802 180.5,518.5C 180.5,525.833 180.5,533.167 180.5,540.5C 165.163,540.667 149.83,540.5 134.5,540C 139.291,532.919 143.958,525.752 148.5,518.5C 161.483,517.501 174.483,517.168 187.5,517.5 Z"/></g>
<g><path style="opacity:0.99" fill="#ffd111" d="M 187.5,517.5 C 200.167,517.5 212.833,517.5 225.5,517.5C 225.5,525.167 225.5,532.833 225.5,540.5C 210.5,540.5 195.5,540.5 180.5,540.5C 180.5,533.167 180.5,525.833 180.5,518.5C 183.059,518.802 185.393,518.468 187.5,517.5 Z"/></g>
<g><path style="opacity:0.988" fill="#ffcb10" d="M 225.5,517.5 C 243.167,517.5 260.833,517.5 278.5,517.5C 278.5,525.167 278.5,532.833 278.5,540.5C 260.833,540.5 243.167,540.5 225.5,540.5C 225.5,532.833 225.5,525.167 225.5,517.5 Z"/></g>
<g><path style="opacity:0.988" fill="#ffc40f" d="M 278.5,517.5 C 293.5,517.5 308.5,517.5 323.5,517.5C 323.5,525.167 323.5,532.833 323.5,540.5C 308.5,540.5 293.5,540.5 278.5,540.5C 278.5,532.833 278.5,525.167 278.5,517.5 Z"/></g>
<g><path style="opacity:0.987" fill="#ffbe0e" d="M 323.5,517.5 C 341.167,517.5 358.833,517.5 376.5,517.5C 374.393,518.468 372.059,518.802 369.5,518.5C 369.5,525.5 369.5,532.5 369.5,539.5C 372.059,539.198 374.393,539.532 376.5,540.5C 358.833,540.5 341.167,540.5 323.5,540.5C 323.5,532.833 323.5,525.167 323.5,517.5 Z"/></g>
<g><path style="opacity:0.99" fill="#ffb80d" d="M 376.5,517.5 C 389.167,517.5 401.833,517.5 414.5,517.5C 414.5,525.167 414.5,532.833 414.5,540.5C 401.833,540.5 389.167,540.5 376.5,540.5C 374.393,539.532 372.059,539.198 369.5,539.5C 369.5,532.5 369.5,525.5 369.5,518.5C 372.059,518.802 374.393,518.468 376.5,517.5 Z"/></g>
<g><path style="opacity:0.962" fill="#ffab0b" d="M 460.5,562.5 C 486.169,562.333 511.835,562.5 537.5,563C 520.505,572.001 502.505,577.834 483.5,580.5C 471.082,580.401 463.415,574.401 460.5,562.5 Z"/></g>
</svg>
