<svg height="100%" version="1.1" width="100%" xmlns="http://www.w3.org/2000/svg" preserveAspectRatio="xMidYMid meet" viewBox="0 0 600 442" xmlns:xlink="http://www.w3.org/1999/xlink"><desc>Created with Snap</desc><defs/><g id="root" contentwidth="308.58" contentheight="235">
          <rect class="background" height="2000%" width="2000%" y="-1000%" x="-1000%" style="" fill="#ffffff"/>
          <g class="content" id="content" transform="matrix(1,0,0,1,142.49,327.7)">
            <g class="icon" style="mask: url(#mask);">
            <svg height="163" version="1.1" width="282.6879302432308" xmlns="http://www.w3.org/2000/svg" x="16.16603487838458" y="-224.2"><desc>Created with Snap</desc><defs/><svg xmlns="http://www.w3.org/2000/svg" xmlns:xlink="http://www.w3.org/1999/xlink" enable-background="new 0 0 7558.682 4358.688" id="Layer_1" version="1.1" viewBox="0 0 7558.682 4358.688" x="0px" xml:space="preserve" y="0px">
<linearGradient gradientUnits="userSpaceOnUse" id="SVGID_1_" x1="50.0008" x2="7508.6802" y1="2193.1599" y2="2193.1599">
	<stop offset="0" style="stop-color:#FFE515"/>
	<stop offset="1" style="stop-color:#FF6A00"/>
</linearGradient>
<path clip-rule="evenodd" d="M7067.174,2622.129  c-473.055,260.967-975.427,473.032-1461.491,711.193l-388.197,185.904l6.522-9.777H4003.922l0,0H1465.872l117.441-182.649h1673.565  l3.261-2114.016h848.184l117.453-182.62h-117.453l0,0H878.635l117.447-179.488h2264.058l3.253-104.402h1755.062l590.479,290.418  c492.593,241.411,991.715,466.515,1474.524,724.226C7615.279,2047.94,7690.247,2276.317,7067.174,2622.129L7067.174,2622.129z   M1273.348,2194.723h991.812l238.047-844.928h2038.936l-123.969,433.928H2933.877l-75.08,267.489h1412.601l-114.186,407.724H2744.62  l-81.485,293.674h1497.339l-123.964,440.342H1987.796l185.996-668.696h228.38l104.399-163.087h-195.774l0,0H1169.047  L1273.348,2194.723z M167.442,2801.499h1259.315l-117.452,179.488H50.001L167.442,2801.499z M271.855,1402.058h1657.273  l-117.45,182.622H154.415L271.855,1402.058z M806.934,3793.232h2449.944v-45.652v-58.662h1611.533l-583.968,287.063h-176.121l0,0  H689.493L806.934,3793.232z M1997.578,384.161h1272.343C3315.546,77.56,3527.62,15.52,3896.252,195.014  c94.63,45.634,189.148,91.368,283.778,140.258l469.782,228.38h-645.89l0,0H1880.119L1997.578,384.161z M3909.292,4155.356  c-375.158,176.197-541.486,185.969-610.037,0H3909.292z" fill="url(#SVGID_1_)" fill-rule="evenodd"/>
</svg></svg></g>
            <g id="icon_name_and_slogan_gap">
            </g>
            <g class="name_and_slogan" id="name_and_slogan_id">
              <g class="name"><g id="nameDefaultGroup"><path d="M50.4 -33.3L36.6 -33.3L37.2 -38.2L20.7 -38.2L17.2 -11.2L33.8 -11.2L34.5 -19.5L30.3 -26.4L49 -26.4L46.2 -4.3L7.5 -4.3Q6.5 -4.3 5.6 -4.7Q4.8 -5 4.1 -5.7Q3.5 -6.3 3.3 -7.2Q3.1 -8.1 3.4 -9.1L8.2 -45.1L51.8 -45.1L50.4 -33.3zM81.8 -27.8L74.4 -27.8L73.8 -25.1L60 -25.1L62.1 -34.7L95.9 -34.7L91.7 -7.8L94.5 -4.3L62.1 -4.3Q60 -4.3 58.9 -5.7Q57.9 -7.1 57.9 -9.1L60 -22.3L80.7 -22.3L81.8 -27.8zM72.4 -15.4L71.7 -11.2L78.6 -11.2L79.4 -15.4L72.4 -15.4zM117.9 -34.7L116.5 -25.1L126.2 -34.7L140 -34.7L116.5 -14L115.1 -4.3L101.3 -4.3L105.3 -32.7L103.9 -34.7L117.9 -34.7zM143.2 -32.6L141.2 -34.7L156.4 -34.7L160.1 -19.4L166.8 -33.3L165.4 -34.7L181.2 -34.7L158 8.1Q157.5 9.1 156.1 9.9Q154.8 10.8 153.2 10.8L140.4 10.8L145.9 5.2L151.4 -5L143.2 -32.6zM208.1 -11.5L208.3 -12.9L187.9 -12.9L189.9 -27.9L244.6 -27.9L242.6 -12.9L222 -12.9L221.8 -11.5L243.7 -11.5L243.1 -7.4L221.3 -7.4L221 -6L244.3 -6L243.6 -0.6L183.4 -0.6L184.1 -6L207.4 -6L207.6 -7.4L185.7 -7.4L186.3 -11.5L208.1 -11.5zM245.7 -34.8L190.9 -34.8L193 -49.9L247.8 -49.9L245.7 -34.8zM248.2 -33.4L247.6 -29.3L187.4 -29.3L188 -33.4L248.2 -33.4zM203.2 -44.4L236 -44.4L236.2 -45.8L203.4 -45.8L203.2 -44.4zM235.3 -38.9L235.4 -40.2L202.6 -40.2L202.5 -38.9L235.3 -38.9zM223.5 -23.8L223.4 -22.5L232.9 -22.5L233.1 -23.8L223.5 -23.8zM232.2 -17L232.4 -18.4L222.8 -18.4L222.6 -17L232.2 -17zM208.9 -17L209.1 -18.4L199.5 -18.4L199.4 -17L208.9 -17zM200.1 -22.5L209.7 -22.5L209.8 -23.8L200.3 -23.8L200.1 -22.5zM310.4 -33.4L294.5 -27.9L291.9 -8.8L305.6 -8.8L308.7 -11.5L307.2 -0.6L277.1 -0.6L280.2 -22.8L271.5 -19.7L272.9 -29.3L281.5 -32.3L283.7 -48.5L281.5 -51.2L297.9 -51.2L295.9 -37.4L311.8 -43L310.4 -33.4zM272.1 -43L265.9 0.6L252.2 0.6L258.1 -41L252.5 -40.2L253.7 -48.4L273.2 -51.2L272.1 -43z" style="" fill="#333333" id="namepathdata"/></g></g>
              <g class="slogan"><g id="sloganDefaultGroup"/></g>
            </g>
            <g class="border">
            </g>
          </g>
          
          <defs id="defs">
            <mask xmlns="http://www.w3.org/2000/svg" id="mask">
                <rect id="showAll" fill="white" x="16.16603487838458" y="-224.2" width="282.6879302432308" height="163"/>
                <rect id="hideNameBg" fill="black" x="0" y="0" width="0" height="0" stroke-width="2" stroke="black"/>
                <rect id="hideSloganBg" fill="black" x="0" y="0" width="0" height="0" stroke-width="2" stroke="black"/>
            <path d="M50.4 -33.3L36.6 -33.3L37.2 -38.2L20.7 -38.2L17.2 -11.2L33.8 -11.2L34.5 -19.5L30.3 -26.4L49 -26.4L46.2 -4.3L7.5 -4.3Q6.5 -4.3 5.6 -4.7Q4.8 -5 4.1 -5.7Q3.5 -6.3 3.3 -7.2Q3.1 -8.1 3.4 -9.1L8.2 -45.1L51.8 -45.1L50.4 -33.3zM81.8 -27.8L74.4 -27.8L73.8 -25.1L60 -25.1L62.1 -34.7L95.9 -34.7L91.7 -7.8L94.5 -4.3L62.1 -4.3Q60 -4.3 58.9 -5.7Q57.9 -7.1 57.9 -9.1L60 -22.3L80.7 -22.3L81.8 -27.8zM72.4 -15.4L71.7 -11.2L78.6 -11.2L79.4 -15.4L72.4 -15.4zM117.9 -34.7L116.5 -25.1L126.2 -34.7L140 -34.7L116.5 -14L115.1 -4.3L101.3 -4.3L105.3 -32.7L103.9 -34.7L117.9 -34.7zM143.2 -32.6L141.2 -34.7L156.4 -34.7L160.1 -19.4L166.8 -33.3L165.4 -34.7L181.2 -34.7L158 8.1Q157.5 9.1 156.1 9.9Q154.8 10.8 153.2 10.8L140.4 10.8L145.9 5.2L151.4 -5L143.2 -32.6zM208.1 -11.5L208.3 -12.9L187.9 -12.9L189.9 -27.9L244.6 -27.9L242.6 -12.9L222 -12.9L221.8 -11.5L243.7 -11.5L243.1 -7.4L221.3 -7.4L221 -6L244.3 -6L243.6 -0.6L183.4 -0.6L184.1 -6L207.4 -6L207.6 -7.4L185.7 -7.4L186.3 -11.5L208.1 -11.5zM245.7 -34.8L190.9 -34.8L193 -49.9L247.8 -49.9L245.7 -34.8zM248.2 -33.4L247.6 -29.3L187.4 -29.3L188 -33.4L248.2 -33.4zM203.2 -44.4L236 -44.4L236.2 -45.8L203.4 -45.8L203.2 -44.4zM235.3 -38.9L235.4 -40.2L202.6 -40.2L202.5 -38.9L235.3 -38.9zM223.5 -23.8L223.4 -22.5L232.9 -22.5L233.1 -23.8L223.5 -23.8zM232.2 -17L232.4 -18.4L222.8 -18.4L222.6 -17L232.2 -17zM208.9 -17L209.1 -18.4L199.5 -18.4L199.4 -17L208.9 -17zM200.1 -22.5L209.7 -22.5L209.8 -23.8L200.3 -23.8L200.1 -22.5zM310.4 -33.4L294.5 -27.9L291.9 -8.8L305.6 -8.8L308.7 -11.5L307.2 -0.6L277.1 -0.6L280.2 -22.8L271.5 -19.7L272.9 -29.3L281.5 -32.3L283.7 -48.5L281.5 -51.2L297.9 -51.2L295.9 -37.4L311.8 -43L310.4 -33.4zM272.1 -43L265.9 0.6L252.2 0.6L258.1 -41L252.5 -40.2L253.7 -48.4L273.2 -51.2L272.1 -43z" style="stroke-width: 0;" fill="#000000" id="masknamepathdata" stroke="#000000" paint-order="stroke" transform="matrix(1,0,0,1,0,0)"/></mask>
          </defs>
          
        </g>
        </svg>